<svg id="visual" viewBox="0 0 600 900" width="600" height="900" xmlns="http://www.w3.org/2000/svg" xmlns:xlink="http://www.w3.org/1999/xlink" version="1.1"><rect x="0" y="0" width="600" height="900" fill="#001220"></rect><path d="M0 541L50 456C100 371 200 201 300 118.8C400 36.7 500 42.3 550 45.2L600 48L600 901L550 901C500 901 400 901 300 901C200 901 100 901 50 901L0 901Z" fill="#fa7268"></path><path d="M0 594L50 574.8C100 555.7 200 517.3 300 515.2C400 513 500 547 550 564L600 581L600 901L550 901C500 901 400 901 300 901C200 901 100 901 50 901L0 901Z" fill="#f36567"></path><path d="M0 525L50 542.5C100 560 200 595 300 584.5C400 574 500 518 550 490L600 462L600 901L550 901C500 901 400 901 300 901C200 901 100 901 50 901L0 901Z" fill="#eb5967"></path><path d="M0 713L50 666.8C100 620.7 200 528.3 300 492.5C400 456.7 500 477.3 550 487.7L600 498L600 901L550 901C500 901 400 901 300 901C200 901 100 901 50 901L0 901Z" fill="#e34c67"></path><path d="M0 754L50 750.5C100 747 200 740 300 709.5C400 679 500 625 550 598L600 571L600 901L550 901C500 901 400 901 300 901C200 901 100 901 50 901L0 901Z" fill="#da3f67"></path><path d="M0 718L50 697.3C100 676.7 200 635.3 300 635C400 634.7 500 675.3 550 695.7L600 716L600 901L550 901C500 901 400 901 300 901C200 901 100 901 50 901L0 901Z" fill="#d03267"></path><path d="M0 895L50 859.7C100 824.3 200 753.7 300 725.8C400 698 500 713 550 720.5L600 728L600 901L550 901C500 901 400 901 300 901C200 901 100 901 50 901L0 901Z" fill="#c62368"></path></svg>